<svg width="116" height="24" viewBox="0 0 116 24" fill="none" xmlns="http://www.w3.org/2000/svg">
<g opacity="0.8" filter="url(#filter0_d_447_1459)">
<path d="M14.5498 11.0293H6.36035V19.2197H3V7.66992H14.5498V11.0293Z" fill="url(#paint0_linear_447_1459)" fill-opacity="0.6"/>
<path d="M19.3799 19.2197H16.0195V7.66992H19.3799V19.2197Z" fill="url(#paint1_linear_447_1459)" fill-opacity="0.6"/>
<path d="M24.5254 7.6709L28.8301 13.4414V7.66992H32.1895V19.2197H28.8301L28.8291 19.2188L24.5254 13.3428V19.2197H21.165V7.66992L24.5254 7.6709Z" fill="url(#paint2_linear_447_1459)" fill-opacity="0.6"/>
<path d="M40.7988 19.2197H37.4385V5.78027H40.7988V19.2197Z" fill="url(#paint3_linear_447_1459)" fill-opacity="0.6"/>
<path fill-rule="evenodd" clip-rule="evenodd" d="M49.9336 5.99023C53.5867 5.99045 56.5479 8.95238 56.5479 12.6055C56.5477 16.2584 53.5866 19.2195 49.9336 19.2197C46.2805 19.2196 43.3185 16.2585 43.3184 12.6055C43.3184 8.95234 46.2805 5.99037 49.9336 5.99023ZM49.9336 9.34961C48.1361 9.34974 46.6788 10.8071 46.6787 12.6045C46.6787 14.402 48.1361 15.8592 49.9336 15.8594C51.7311 15.8592 53.1885 14.402 53.1885 12.6045C53.1884 10.8071 51.731 9.34974 49.9336 9.34961Z" fill="url(#paint4_linear_447_1459)" fill-opacity="0.6"/>
<path fill-rule="evenodd" clip-rule="evenodd" d="M63.6885 5.99023C67.3415 5.99046 70.3027 8.95239 70.3027 12.6055C70.3026 16.2584 67.3414 19.2195 63.6885 19.2197C60.0353 19.2197 57.0734 16.2586 57.0732 12.6055C57.0732 8.95225 60.0352 5.99023 63.6885 5.99023ZM63.6885 9.34961C61.8909 9.34961 60.4337 10.807 60.4336 12.6045C60.4336 14.4021 61.8908 15.8594 63.6885 15.8594C65.486 15.8593 66.9434 14.4021 66.9434 12.6045C66.9432 10.807 65.486 9.34968 63.6885 9.34961Z" fill="url(#paint5_linear_447_1459)" fill-opacity="0.6"/>
<path d="M74.7129 19.2197H71.3525V2H74.7129V19.2197Z" fill="url(#paint6_linear_447_1459)" fill-opacity="0.6"/>
<path fill-rule="evenodd" clip-rule="evenodd" d="M79.543 7.83301C80.524 6.69212 81.855 5.99028 83.3223 5.99023C86.3376 5.99023 88.7821 8.95139 88.7822 12.6045C88.7822 16.2577 86.3376 19.2197 83.3223 19.2197C81.8547 19.2197 80.5241 18.5164 79.543 17.375V19.2197H76.1826V2H79.543V7.83301ZM82.4297 9.03418C80.7193 9.03444 79.3331 10.6094 79.333 12.5518C79.333 14.4942 80.7192 16.0691 82.4297 16.0693C84.1403 16.0693 85.5273 14.4943 85.5273 12.5518C85.5273 10.6092 84.1403 9.03418 82.4297 9.03418Z" fill="url(#paint7_linear_447_1459)" fill-opacity="0.6"/>
<path fill-rule="evenodd" clip-rule="evenodd" d="M95.502 5.99023C99.155 5.9905 102.117 8.95242 102.117 12.6055C102.117 16.2584 99.1549 19.2195 95.502 19.2197C91.849 19.2195 88.8878 16.2584 88.8877 12.6055C88.8877 8.95239 91.8489 5.99046 95.502 5.99023ZM95.5029 9.34961C93.7054 9.34961 92.2482 10.807 92.248 12.6045C92.248 14.4021 93.7053 15.8594 95.5029 15.8594C97.3002 15.8589 98.7578 14.4018 98.7578 12.6045C98.7577 10.8073 97.3001 9.35006 95.5029 9.34961Z" fill="url(#paint8_linear_447_1459)" fill-opacity="0.6"/>
<path d="M109.185 12.2617L112.999 18.4307H109.64L107.507 14.9785L105.375 18.4307H102.015L105.829 12.2617L102.02 6.0957L105.38 6.10645L107.507 9.54688L109.635 6.10645L112.994 6.0957L109.185 12.2617Z" fill="url(#paint9_linear_447_1459)" fill-opacity="0.6"/>
<path d="M14.5498 5.7793H3V2.41992H14.5498V5.7793Z" fill="url(#paint10_linear_447_1459)" fill-opacity="0.6"/>
<path d="M19.3799 5.7793H16.0195V2.41992H19.3799V5.7793Z" fill="url(#paint11_linear_447_1459)" fill-opacity="0.6"/>
<path d="M44.8936 5.7793H33.3438V2.41992H44.8936V5.7793Z" fill="url(#paint12_linear_447_1459)" fill-opacity="0.6"/>
</g>
<defs>
<filter id="filter0_d_447_1459" x="0" y="0" width="116" height="24" filterUnits="userSpaceOnUse" color-interpolation-filters="sRGB">
<feFlood flood-opacity="0" result="BackgroundImageFix"/>
<feColorMatrix in="SourceAlpha" type="matrix" values="0 0 0 0 0 0 0 0 0 0 0 0 0 0 0 0 0 0 127 0" result="hardAlpha"/>
<feOffset dy="1"/>
<feGaussianBlur stdDeviation="1.5"/>
<feComposite in2="hardAlpha" operator="out"/>
<feColorMatrix type="matrix" values="0 0 0 0 0 0 0 0 0 0 0 0 0 0 0 0 0 0 0.1 0"/>
<feBlend mode="normal" in2="BackgroundImageFix" result="effect1_dropShadow_447_1459"/>
<feBlend mode="normal" in="SourceGraphic" in2="effect1_dropShadow_447_1459" result="shape"/>
</filter>
<linearGradient id="paint0_linear_447_1459" x1="4.5" y1="2" x2="11" y2="37.5" gradientUnits="userSpaceOnUse">
<stop/>
<stop offset="1" stop-opacity="0.8"/>
</linearGradient>
<linearGradient id="paint1_linear_447_1459" x1="4.5" y1="2" x2="11" y2="37.5" gradientUnits="userSpaceOnUse">
<stop/>
<stop offset="1" stop-opacity="0.8"/>
</linearGradient>
<linearGradient id="paint2_linear_447_1459" x1="4.5" y1="2" x2="11" y2="37.5" gradientUnits="userSpaceOnUse">
<stop/>
<stop offset="1" stop-opacity="0.8"/>
</linearGradient>
<linearGradient id="paint3_linear_447_1459" x1="4.5" y1="2" x2="11" y2="37.5" gradientUnits="userSpaceOnUse">
<stop/>
<stop offset="1" stop-opacity="0.8"/>
</linearGradient>
<linearGradient id="paint4_linear_447_1459" x1="4.5" y1="2" x2="11" y2="37.5" gradientUnits="userSpaceOnUse">
<stop/>
<stop offset="1" stop-opacity="0.8"/>
</linearGradient>
<linearGradient id="paint5_linear_447_1459" x1="4.5" y1="2" x2="11" y2="37.5" gradientUnits="userSpaceOnUse">
<stop/>
<stop offset="1" stop-opacity="0.8"/>
</linearGradient>
<linearGradient id="paint6_linear_447_1459" x1="4.5" y1="2" x2="11" y2="37.5" gradientUnits="userSpaceOnUse">
<stop/>
<stop offset="1" stop-opacity="0.8"/>
</linearGradient>
<linearGradient id="paint7_linear_447_1459" x1="4.5" y1="2" x2="11" y2="37.5" gradientUnits="userSpaceOnUse">
<stop/>
<stop offset="1" stop-opacity="0.8"/>
</linearGradient>
<linearGradient id="paint8_linear_447_1459" x1="4.5" y1="2" x2="11" y2="37.5" gradientUnits="userSpaceOnUse">
<stop/>
<stop offset="1" stop-opacity="0.8"/>
</linearGradient>
<linearGradient id="paint9_linear_447_1459" x1="4.5" y1="2" x2="11" y2="37.5" gradientUnits="userSpaceOnUse">
<stop/>
<stop offset="1" stop-opacity="0.8"/>
</linearGradient>
<linearGradient id="paint10_linear_447_1459" x1="4.5" y1="2" x2="11" y2="37.5" gradientUnits="userSpaceOnUse">
<stop/>
<stop offset="1" stop-opacity="0.8"/>
</linearGradient>
<linearGradient id="paint11_linear_447_1459" x1="4.5" y1="2" x2="11" y2="37.5" gradientUnits="userSpaceOnUse">
<stop/>
<stop offset="1" stop-opacity="0.8"/>
</linearGradient>
<linearGradient id="paint12_linear_447_1459" x1="4.5" y1="2" x2="11" y2="37.5" gradientUnits="userSpaceOnUse">
<stop/>
<stop offset="1" stop-opacity="0.8"/>
</linearGradient>
</defs>
</svg>
